<svg xmlns="http://www.w3.org/2000/svg" viewBox="0 0 32 32" width="32" height="32">
  <path d="M4 24 C4 20, 7 18, 10 18 C13 18, 16 20, 16 24 C16 28, 13 30, 10 30 C7 30, 4 28, 4 24 Z" fill="black"/>
  <path d="M7 8 C7 12, 10 14, 13 14 C16 14, 19 12, 19 8 C19 4, 16 2, 13 2 C10 2, 7 4, 7 8 Z" fill="black"/>
  <path d="M19 8 C19 12, 22 14, 25 14 C28 14, 31 12, 31 8 C31 4, 28 2, 25 2 C22 2, 19 4, 19 8 Z" fill="black"/>
  <path d="M22 24 C22 20, 25 18, 28 18 C31 18, 34 20, 34 24 C34 28, 31 30, 28 30 C25 30, 22 28, 22 24 Z" fill="black"/>
  <path d="M10 18 Q16 18 25 18" stroke="black" stroke-width="2" fill="none"/>
</svg>