<svg xmlns="http://www.w3.org/2000/svg" viewBox="0 0 64 64" width="64" height="64">
  <rect width="64" height="64" fill="white"/>
  <path d="M8 48 C8 40, 14 36, 20 36 C26 36, 32 40, 32 48 C32 56, 26 60, 20 60 C14 60, 8 56, 8 48 Z" fill="black"/>
  <path d="M14 16 C14 24, 20 28, 26 28 C32 28, 38 24, 38 16 C38 8, 32 4, 26 4 C20 4, 14 8, 14 16 Z" fill="black"/>
  <path d="M38 16 C38 24, 44 28, 50 28 C56 28, 62 24, 62 16 C62 8, 56 4, 50 4 C44 4, 38 8, 38 16 Z" fill="black"/>
  <path d="M44 48 C44 40, 50 36, 56 36 C62 36, 68 40, 68 48 C68 56, 62 60, 56 60 C50 60, 44 56, 44 48 Z" fill="black"/>
  <path d="M20 36 Q32 36 50 36" stroke="black" stroke-width="4" fill="none"/>
</svg>