<svg xmlns="http://www.w3.org/2000/svg" viewBox="0 0 32 32" width="32" height="32">
  <rect width="32" height="32" fill="black"/>
  <!-- Simplified S6 logo for favicon -->
  <path d="M4 8 C4 4, 7 2, 10 2 C13 2, 16 4, 16 8 C16 12, 13 14, 10 14 C7 14, 4 16, 4 20 C4 24, 7 26, 10 26 C13 26, 16 24, 16 20" 
        fill="none" stroke="white" stroke-width="2" stroke-linecap="round"/>
  <path d="M20 8 C20 4, 23 2, 26 2 C29 2, 32 4, 32 8 C32 12, 29 14, 26 14 C23 14, 20 16, 20 20 C20 24, 23 26, 26 26 C29 26, 32 24, 32 20 C32 16, 29 14, 26 14" 
        fill="none" stroke="white" stroke-width="2" stroke-linecap="round"/>
  <circle cx="26" cy="20" r="6" fill="none" stroke="white" stroke-width="2"/>
</svg>