<svg xmlns="http://www.w3.org/2000/svg" viewBox="0 0 200 80" width="200" height="80">
  <!-- Recreating the 96/S6 logo style from your image -->
  <!-- Left curved S shape -->
  <path d="M20 20 C20 10, 30 5, 40 5 C50 5, 60 10, 60 20 C60 30, 50 35, 40 35 C30 35, 20 40, 20 50 C20 60, 30 65, 40 65 C50 65, 60 60, 60 50" 
        fill="none" stroke="white" stroke-width="8" stroke-linecap="round"/>
  
  <!-- Right curved 6 shape -->
  <path d="M140 20 C140 10, 150 5, 160 5 C170 5, 180 10, 180 20 C180 30, 170 35, 160 35 C150 35, 140 40, 140 50 C140 60, 150 65, 160 65 C170 65, 180 60, 180 50 C180 40, 170 35, 160 35" 
        fill="none" stroke="white" stroke-width="8" stroke-linecap="round"/>
  
  <!-- Bottom curl of the 6 -->
  <circle cx="160" cy="50" r="15" fill="none" stroke="white" stroke-width="8"/>
</svg>